<svg width="729" height="777" viewBox="0 0 729 777" fill="none" xmlns="http://www.w3.org/2000/svg">
<g opacity="0.05" clip-path="url(#clip0_1_12798)">
<path d="M200.63 647.196H256.628V779.496H200.63V647.196Z" fill="#333333" stroke="black"/>
<path d="M200.63 640.471H225.538V647.059H200.63V640.471Z" fill="#333333" stroke="black"/>
<path d="M200.63 636.16H214.657V639.471H200.63V636.16Z" fill="#333333" stroke="black"/>
<path opacity="0.06" d="M224.466 656.508H232.793V662.406H224.466V656.508Z" fill="white" stroke="black"/>
<path opacity="0.12" d="M224.466 673.58H232.793V679.478H224.466V673.58Z" fill="white" stroke="black"/>
<path opacity="0.19" d="M224.466 707.724H232.793V713.622H224.466V707.724Z" fill="white" stroke="black"/>
<path opacity="0.14" d="M224.466 741.868H232.793V747.766H224.466V741.868Z" fill="white" stroke="black"/>
<path opacity="0.1" d="M224.466 758.94H232.793V764.838H224.466V758.94Z" fill="white" stroke="black"/>
<path d="M36.546 661.681H113.616V732.073H36.546V661.681Z" fill="#333333" stroke="black"/>
<path d="M48.9819 655.301H101.352V684.996H48.9819V655.301Z" fill="#333333" stroke="black"/>
<path d="M42.2458 706.689H119.315V777.081H42.2458V706.689Z" fill="#333333" stroke="black"/>
<path d="M54.509 700.308H106.88V730.003H54.509V700.308Z" fill="#333333" stroke="black"/>
<path d="M146.224 697.204H223.293V778.461H146.224V697.204Z" fill="#333333" stroke="black"/>
<path d="M158.659 689.962H211.03V724.485H158.659V689.962Z" fill="#333333" stroke="black"/>
<path d="M407.549 722.21H484.619V800.706H407.549V722.21Z" fill="#333333" stroke="black"/>
<path d="M419.985 715.139H472.356V748.456H419.985V715.139Z" fill="#333333" stroke="black"/>
<path d="M229.129 558.042H315.353V778.289H229.129V558.042Z" fill="#333333" stroke="black"/>
<path opacity="0.46" d="M233.447 568.044H253.519V571.011H233.447V568.044Z" fill="#E6E6E6" stroke="black"/>
<path opacity="0.34" d="M262.292 568.044H282.363V571.011H262.292V568.044Z" fill="#E6E6E6" stroke="black"/>
<path opacity="0.52" d="M290.963 568.044H311.035V571.011H290.963V568.044Z" fill="#E6E6E6" stroke="black"/>
<path opacity="0.54" d="M233.447 577.184H253.519V580.15H233.447V577.184Z" fill="#E6E6E6" stroke="black"/>
<path opacity="0.3" d="M262.292 577.184H282.363V580.15H262.292V577.184Z" fill="#E6E6E6" stroke="black"/>
<path opacity="0.06" d="M290.963 577.184H311.035V580.15H290.963V577.184Z" fill="#E6E6E6" stroke="black"/>
<path opacity="0.15" d="M233.447 586.323H253.519V589.29H233.447V586.323Z" fill="#E6E6E6" stroke="black"/>
<path opacity="0.42" d="M262.292 586.323H282.363V589.29H262.292V586.323Z" fill="#E6E6E6" stroke="black"/>
<path opacity="0.48" d="M290.963 586.323H311.035V589.29H290.963V586.323Z" fill="#E6E6E6" stroke="black"/>
<path opacity="0.18" d="M233.447 595.463H253.519V598.429H233.447V595.463Z" fill="#E6E6E6" stroke="black"/>
<path opacity="0.28" d="M290.963 595.463H311.035V598.429H290.963V595.463Z" fill="#E6E6E6" stroke="black"/>
<path opacity="0.29" d="M233.447 604.603H253.519V607.569H233.447V604.603Z" fill="#E6E6E6" stroke="black"/>
<path opacity="0.28" d="M262.292 604.603H282.363V607.569H262.292V604.603Z" fill="#E6E6E6" stroke="black"/>
<path opacity="0.56" d="M290.963 604.603H311.035V607.569H290.963V604.603Z" fill="#E6E6E6" stroke="black"/>
<path opacity="0.41" d="M233.447 613.742H253.519V616.709H233.447V613.742Z" fill="#E6E6E6" stroke="black"/>
<path opacity="0.16" d="M262.292 613.742H282.363V616.709H262.292V613.742Z" fill="#E6E6E6" stroke="black"/>
<path opacity="0.4" d="M290.963 613.742H311.035V616.709H290.963V613.742Z" fill="#E6E6E6" stroke="black"/>
<path opacity="0.1" d="M233.447 622.882H253.519V625.848H233.447V622.882Z" fill="#E6E6E6" stroke="black"/>
<path opacity="0.17" d="M262.292 622.882H282.363V625.848H262.292V622.882Z" fill="#E6E6E6" stroke="black"/>
<path opacity="0.08" d="M290.963 622.882H311.035V625.848H290.963V622.882Z" fill="#E6E6E6" stroke="black"/>
<path opacity="0.49" d="M233.447 632.021H253.519V634.988H233.447V632.021Z" fill="#E6E6E6" stroke="black"/>
<path opacity="0.58" d="M262.292 632.021H282.363V634.988H262.292V632.021Z" fill="#E6E6E6" stroke="black"/>
<path opacity="0.58" d="M290.963 632.021H311.035V634.988H290.963V632.021Z" fill="#E6E6E6" stroke="black"/>
<path opacity="0.26" d="M233.447 641.161H253.519V644.127H233.447V641.161Z" fill="#E6E6E6" stroke="black"/>
<path opacity="0.37" d="M262.292 641.161H282.363V644.127H262.292V641.161Z" fill="#E6E6E6" stroke="black"/>
<path opacity="0.34" d="M290.963 641.161H311.035V644.127H290.963V641.161Z" fill="#E6E6E6" stroke="black"/>
<path opacity="0.55" d="M233.447 650.301H253.519V653.267H233.447V650.301Z" fill="#E6E6E6" stroke="black"/>
<path opacity="0.12" d="M262.292 650.301H282.363V653.267H262.292V650.301Z" fill="#E6E6E6" stroke="black"/>
<path opacity="0.6" d="M290.963 650.301H311.035V653.267H290.963V650.301Z" fill="#E6E6E6" stroke="black"/>
<path opacity="0.02" d="M233.447 659.44H253.519V662.406H233.447V659.44Z" fill="#E6E6E6" stroke="black"/>
<path opacity="0.28" d="M262.292 659.44H282.363V662.406H262.292V659.44Z" fill="#E6E6E6" stroke="black"/>
<path opacity="0.21" d="M290.963 659.44H311.035V662.406H290.963V659.44Z" fill="#E6E6E6" stroke="black"/>
<path opacity="0.57" d="M233.447 668.58H253.519V671.546H233.447V668.58Z" fill="#E6E6E6" stroke="black"/>
<path opacity="0.38" d="M262.292 668.58H282.363V671.546H262.292V668.58Z" fill="#E6E6E6" stroke="black"/>
<path opacity="0.25" d="M290.963 668.58H311.035V671.546H290.963V668.58Z" fill="#E6E6E6" stroke="black"/>
<path opacity="0.15" d="M233.447 677.719H253.519V680.685H233.447V677.719Z" fill="#E6E6E6" stroke="black"/>
<path opacity="0.47" d="M262.292 677.719H282.363V680.685H262.292V677.719Z" fill="#E6E6E6" stroke="black"/>
<path opacity="0.3" d="M290.963 677.719H311.035V680.685H290.963V677.719Z" fill="#E6E6E6" stroke="black"/>
<path opacity="0.4" d="M233.447 686.858H253.519V689.825H233.447V686.858Z" fill="#E6E6E6" stroke="black"/>
<path opacity="0.39" d="M262.292 686.858H282.363V689.825H262.292V686.858Z" fill="#E6E6E6" stroke="black"/>
<path opacity="0.24" d="M290.963 686.858H311.035V689.825H290.963V686.858Z" fill="#E6E6E6" stroke="black"/>
<path opacity="0.46" d="M233.447 695.998H253.519V698.964H233.447V695.998Z" fill="#E6E6E6" stroke="black"/>
<path opacity="0.22" d="M262.292 695.998H282.363V698.964H262.292V695.998Z" fill="#E6E6E6" stroke="black"/>
<path opacity="0.11" d="M290.963 695.998H311.035V698.964H290.963V695.998Z" fill="#E6E6E6" stroke="black"/>
<path opacity="0.11" d="M262.292 705.138H282.363V708.104H262.292V705.138Z" fill="#E6E6E6" stroke="black"/>
<path opacity="0.02" d="M290.963 705.138H311.035V708.104H290.963V705.138Z" fill="#E6E6E6" stroke="black"/>
<path opacity="0.27" d="M233.447 714.277H253.519V717.244H233.447V714.277Z" fill="#E6E6E6" stroke="black"/>
<path opacity="0.21" d="M262.292 714.277H282.363V717.244H262.292V714.277Z" fill="#E6E6E6" stroke="black"/>
<path opacity="0.49" d="M290.963 714.277H311.035V717.244H290.963V714.277Z" fill="#E6E6E6" stroke="black"/>
<path opacity="0.6" d="M233.447 723.417H253.519V726.383H233.447V723.417Z" fill="#E6E6E6" stroke="black"/>
<path opacity="0.31" d="M262.292 723.417H282.363V726.383H262.292V723.417Z" fill="#E6E6E6" stroke="black"/>
<path opacity="0.22" d="M290.963 723.417H311.035V726.383H290.963V723.417Z" fill="#E6E6E6" stroke="black"/>
<path opacity="0.54" d="M233.447 732.556H253.519V735.523H233.447V732.556Z" fill="#E6E6E6" stroke="black"/>
<path opacity="0.6" d="M262.292 732.556H282.363V735.523H262.292V732.556Z" fill="#E6E6E6" stroke="black"/>
<path opacity="0.08" d="M290.963 732.556H311.035V735.523H290.963V732.556Z" fill="#E6E6E6" stroke="black"/>
<path opacity="0.55" d="M262.292 741.696H282.363V744.662H262.292V741.696Z" fill="#E6E6E6" stroke="black"/>
<path d="M290.963 741.696H311.035V744.662H290.963V741.696Z" fill="#E6E6E6" stroke="black"/>
<path opacity="0.6" d="M254.519 568.044H254.901V744.662H254.519V568.044Z" fill="#E6E6E6" stroke="black"/>
<path opacity="0.6" d="M289.581 568.044H289.963V744.662H289.581V568.044Z" fill="#E6E6E6" stroke="black"/>
<path d="M316.353 558.042H358.878V778.289H316.353V558.042Z" fill="#4D4D4D" stroke="black"/>
<path opacity="0.69" d="M320.671 568.044H352.488V571.011H320.671V568.044Z" fill="#E6E6E6" stroke="black"/>
<path opacity="0.79" d="M320.671 577.184H352.488V580.15H320.671V577.184Z" fill="#E6E6E6" stroke="black"/>
<path opacity="0.19" d="M320.671 586.323H352.488V589.29H320.671V586.323Z" fill="#E6E6E6" stroke="black"/>
<path opacity="0.88" d="M320.671 595.463H352.488V598.429H320.671V595.463Z" fill="#E6E6E6" stroke="black"/>
<path opacity="0.5" d="M320.671 604.603H352.488V607.569H320.671V604.603Z" fill="#E6E6E6" stroke="black"/>
<path opacity="0.25" d="M320.671 613.742H352.488V616.709H320.671V613.742Z" fill="#E6E6E6" stroke="black"/>
<path opacity="0.91" d="M320.671 622.882H352.488V625.848H320.671V622.882Z" fill="#E6E6E6" stroke="black"/>
<path opacity="0.02" d="M320.671 632.021H352.488V634.988H320.671V632.021Z" fill="#E6E6E6" stroke="black"/>
<path opacity="0.53" d="M320.671 641.161H352.488V644.127H320.671V641.161Z" fill="#E6E6E6" stroke="black"/>
<path opacity="0.65" d="M320.671 650.301H352.488V653.267H320.671V650.301Z" fill="#E6E6E6" stroke="black"/>
<path d="M320.671 659.44H352.488V662.406H320.671V659.44Z" fill="#E6E6E6" stroke="black"/>
<path opacity="0.8" d="M320.671 668.58H352.488V671.546H320.671V668.58Z" fill="#E6E6E6" stroke="black"/>
<path opacity="0.82" d="M320.671 677.719H352.488V680.685H320.671V677.719Z" fill="#E6E6E6" stroke="black"/>
<path opacity="0.75" d="M320.671 686.858H352.488V689.825H320.671V686.858Z" fill="#E6E6E6" stroke="black"/>
<path opacity="0.31" d="M320.671 695.998H352.488V698.964H320.671V695.998Z" fill="#E6E6E6" stroke="black"/>
<path opacity="0.22" d="M320.671 705.138H352.488V708.104H320.671V705.138Z" fill="#E6E6E6" stroke="black"/>
<path opacity="0.43" d="M320.671 714.277H352.488V717.244H320.671V714.277Z" fill="#E6E6E6" stroke="black"/>
<path opacity="0.68" d="M320.671 723.417H352.488V726.383H320.671V723.417Z" fill="#E6E6E6" stroke="black"/>
<path opacity="0.38" d="M320.671 732.556H352.488V735.523H320.671V732.556Z" fill="#E6E6E6" stroke="black"/>
<path opacity="0.84" d="M320.671 741.696H352.488V744.662H320.671V741.696Z" fill="#E6E6E6" stroke="black"/>
<path d="M256.61 554.249H257.11V553.749V549.782V549.282H256.61H250.737H250.237V549.782V553.749V554.249H250.737H256.61ZM265.764 554.249H266.264V553.749V549.782V549.282H265.764H260.064H259.564V549.782V553.749V554.249H260.064H265.764ZM275.091 554.249H275.591V553.749V549.782V549.282H275.091H269.391H268.891V549.782V553.749V554.249H269.391H275.091ZM284.418 554.249H284.918V553.749V549.782V549.282H284.418H278.545H278.045V549.782V553.749V554.249H278.545H284.418ZM293.745 554.249H294.245V553.749V549.782V549.282H293.745H287.872H287.372V549.782V553.749V554.249H287.872H293.745ZM299.981 557.042H244.501V546.316H299.981V557.042Z" fill="#333333" stroke="black"/>
<path d="M309.79 550.282H310.344V553.249H309.79V550.282Z" fill="#333333" stroke="black"/>
<path d="M310.844 554.249H311.344V553.749V549.782V549.282H310.844H305.144H304.644V549.782V553.749V554.249H305.144H310.844ZM323.107 554.249H323.607V553.749V549.782V549.282H323.107H317.408H316.908V549.782V553.749V554.249H317.408H323.107ZM326.58 557.042H300.981V546.316H326.58V557.042Z" fill="#4D4D4D" stroke="black"/>
<path d="M321.88 550.282H322.435V553.249H321.88V550.282Z" fill="#333333" stroke="black"/>
<path d="M326.925 793.29H211.497L326.925 708.213V793.29Z" fill="#333333" stroke="black"/>
<path d="M143.287 511.137H151.787V546.178H143.287V511.137Z" fill="#4D4D4D" stroke="black"/>
<path d="M133.788 511.137H142.46V546.178H133.788V511.137Z" fill="#333333" stroke="black"/>
<path d="M152.96 511.137H161.632V546.178H152.96V511.137Z" fill="#666666" stroke="black"/>
<path d="M163.668 571.838H189.613V776.392H163.668V571.838Z" fill="#666666" stroke="black"/>
<path d="M108.571 571.838H131.061V776.392H108.571V571.838Z" fill="#333333" stroke="black"/>
<path d="M131.888 571.838H162.668V776.392H131.888V571.838Z" fill="#4D4D4D" stroke="black"/>
<path opacity="0.6" d="M111.852 577.873H114.307V773.632H111.852V577.873Z" fill="#E6E6E6" stroke="black"/>
<path opacity="0.6" d="M118.588 577.873H121.043V773.632H118.588V577.873Z" fill="#E6E6E6" stroke="black"/>
<path opacity="0.6" d="M125.325 577.873H127.779V773.632H125.325V577.873Z" fill="#E6E6E6" stroke="black"/>
<path d="M165.568 577.873H168.023V773.632H165.568V577.873Z" fill="#E6E6E6" stroke="black"/>
<path d="M172.304 577.873H174.759V773.632H172.304V577.873Z" fill="#E6E6E6" stroke="black"/>
<path d="M185.431 577.873H187.885V773.632H185.431V577.873Z" fill="#E6E6E6" stroke="black"/>
<path d="M179.04 577.873H181.495V773.632H179.04V577.873Z" fill="#E6E6E6" stroke="black"/>
<path opacity="0.8" d="M139.16 580.322H138.66V580.822V770.684V771.184H139.16H155.396H155.896V770.684V580.822V580.322H155.396H139.16ZM158.696 577.873V773.632H135.86V577.873H158.696Z" fill="#E6E6E6" stroke="black"/>
<path opacity="0.8" d="M145.724 587.737H145.224V588.237V763.096V763.596H145.724H146.933H147.624H149.005H149.505V763.096V588.237V587.737H149.005H147.624H146.933H145.724ZM151.96 584.426V766.907H142.769V584.426H151.96Z" fill="#E6E6E6" stroke="black"/>
<g opacity="0.8">
<mask id="path-118-inside-1_1_12798" fill="white">
<path d="M147.624 588.237H146.933V763.096H147.624V588.237Z"/>
</mask>
<path d="M147.624 588.237H146.933V763.096H147.624V588.237Z" fill="#E6E6E6"/>
<path d="M146.933 588.237V587.237H145.933V588.237H146.933ZM147.624 588.237H148.624V587.237H147.624V588.237ZM147.624 763.096V764.096H148.624V763.096H147.624ZM146.933 763.096H145.933V764.096H146.933V763.096ZM146.933 589.237H147.624V587.237H146.933V589.237ZM146.624 588.237V763.096H148.624V588.237H146.624ZM147.624 762.096H146.933V764.096H147.624V762.096ZM147.933 763.096V588.237H145.933V763.096H147.933Z" fill="black" mask="url(#path-118-inside-1_1_12798)"/>
</g>
<path d="M136.206 535.797H159.041V570.838H136.206V535.797Z" fill="#4D4D4D" stroke="black"/>
<path d="M136.206 535.797H159.041V570.838H136.206V535.797Z" fill="#4D4D4D" stroke="black"/>
<path d="M160.041 535.797H182.877V570.838H160.041V535.797Z" fill="#666666" stroke="black"/>
<path d="M112.37 535.797H135.206V570.838H112.37V535.797Z" fill="#333333" stroke="black"/>
<path d="M142.943 516.69L134.893 511.137H160.354L152.304 516.69H142.943Z" fill="#808080" stroke="black"/>
<path d="M480.783 598.394H574.261V628.778H480.783V598.394Z" fill="#E6E6E6" stroke="black"/>
<path d="M480.783 598.394H516.918V628.778H480.783V598.394Z" fill="#B3B3B3" stroke="black"/>
<path d="M444.511 629.951H516.918V781.392H444.511V629.951Z" fill="#333333" stroke="black"/>
<path d="M517.918 629.951H631.604V781.392H517.918V629.951Z" fill="#4D4D4D" stroke="black"/>
<path d="M452.457 614.431H507.936V628.951H452.457V614.431Z" fill="#333333" stroke="black"/>
<path d="M534.844 614.431H614.505V628.951H534.844V614.431Z" fill="#4D4D4D" stroke="black"/>
<path d="M517.918 586.495H549.216V597.393H517.918V586.495Z" fill="#E6E6E6" stroke="black"/>
<path d="M517.918 574.424H532.981V585.323H517.918V574.424Z" fill="#4D4D4D" stroke="black"/>
<path d="M501.682 574.424H516.745V585.323H501.682V574.424Z" fill="#333333" stroke="black"/>
<path d="M493.219 586.495H516.918V597.393H493.219V586.495Z" fill="#B3B3B3" stroke="black"/>
<path d="M517.765 573.424H516.9L517.372 560.864L517.765 573.424Z" fill="#333333" stroke="black"/>
<path opacity="0.12" d="M461.611 636.159H466.656V641.194H461.611V636.159Z" fill="white" stroke="black"/>
<path opacity="0.25" d="M469.901 636.159H474.947V641.194H469.901V636.159Z" fill="white" stroke="black"/>
<path opacity="0.36" d="M478.192 636.159H483.237V641.194H478.192V636.159Z" fill="white" stroke="black"/>
<path opacity="0.12" d="M486.482 636.159H491.528V641.194H486.482V636.159Z" fill="white" stroke="black"/>
<path opacity="0.14" d="M494.773 636.159H499.818V641.194H494.773V636.159Z" fill="white" stroke="black"/>
<path opacity="0.28" d="M461.611 644.091H466.656V649.127H461.611V644.091Z" fill="white" stroke="black"/>
<path opacity="0.4" d="M469.901 644.091H474.947V649.127H469.901V644.091Z" fill="white" stroke="black"/>
<path opacity="0.16" d="M478.192 644.091H483.237V649.127H478.192V644.091Z" fill="white" stroke="black"/>
<path opacity="0.17" d="M494.773 644.091H499.818V649.127H494.773V644.091Z" fill="white" stroke="black"/>
<path opacity="0.27" d="M461.611 652.024H466.656V657.059H461.611V652.024Z" fill="white" stroke="black"/>
<path opacity="0.45" d="M469.901 652.024H474.947V657.059H469.901V652.024Z" fill="white" stroke="black"/>
<path opacity="0.45" d="M478.192 652.024H483.237V657.059H478.192V652.024Z" fill="white" stroke="black"/>
<path opacity="0.48" d="M486.482 652.024H491.528V657.059H486.482V652.024Z" fill="white" stroke="black"/>
<path opacity="0.25" d="M494.773 652.024H499.818V657.059H494.773V652.024Z" fill="white" stroke="black"/>
<path opacity="0.28" d="M461.611 659.956H466.656V664.992H461.611V659.956Z" fill="white" stroke="black"/>
<path opacity="0.13" d="M469.901 659.956H474.947V664.992H469.901V659.956Z" fill="white" stroke="black"/>
<path opacity="0.07" d="M478.192 659.956H483.237V664.992H478.192V659.956Z" fill="white" stroke="black"/>
<path opacity="0.39" d="M486.482 659.956H491.528V664.992H486.482V659.956Z" fill="white" stroke="black"/>
<path opacity="0.47" d="M494.773 659.956H499.818V664.992H494.773V659.956Z" fill="white" stroke="black"/>
<path opacity="0.28" d="M461.611 667.888H466.656V672.924H461.611V667.888Z" fill="white" stroke="black"/>
<path opacity="0.2" d="M469.901 667.888H474.947V672.924H469.901V667.888Z" fill="white" stroke="black"/>
<path opacity="0.04" d="M478.192 667.888H483.237V672.924H478.192V667.888Z" fill="white" stroke="black"/>
<path opacity="0.43" d="M486.482 667.888H491.528V672.924H486.482V667.888Z" fill="white" stroke="black"/>
<path opacity="0.48" d="M494.773 667.888H499.818V672.924H494.773V667.888Z" fill="white" stroke="black"/>
<path opacity="0.28" d="M461.611 675.821H466.656V680.856H461.611V675.821Z" fill="white" stroke="black"/>
<path opacity="0.19" d="M469.901 675.821H474.947V680.856H469.901V675.821Z" fill="white" stroke="black"/>
<path opacity="0.01" d="M478.192 675.821H483.237V680.856H478.192V675.821Z" fill="white" stroke="black"/>
<path opacity="0.27" d="M486.482 675.821H491.528V680.856H486.482V675.821Z" fill="white" stroke="black"/>
<path opacity="0.24" d="M494.773 675.821H499.818V680.856H494.773V675.821Z" fill="white" stroke="black"/>
<path opacity="0.07" d="M461.611 683.926H466.656V688.961H461.611V683.926Z" fill="white" stroke="black"/>
<path opacity="0.25" d="M469.901 683.926H474.947V688.961H469.901V683.926Z" fill="white" stroke="black"/>
<path opacity="0.26" d="M478.192 683.926H483.237V688.961H478.192V683.926Z" fill="white" stroke="black"/>
<path opacity="0.39" d="M486.482 683.926H491.528V688.961H486.482V683.926Z" fill="white" stroke="black"/>
<path opacity="0.22" d="M494.773 683.926H499.818V688.961H494.773V683.926Z" fill="white" stroke="black"/>
<path opacity="0.15" d="M461.611 691.858H466.656V696.894H461.611V691.858Z" fill="white" stroke="black"/>
<path opacity="0.23" d="M469.901 691.858H474.947V696.894H469.901V691.858Z" fill="white" stroke="black"/>
<path opacity="0.05" d="M478.192 691.858H483.237V696.894H478.192V691.858Z" fill="white" stroke="black"/>
<path opacity="0.2" d="M486.482 691.858H491.528V696.894H486.482V691.858Z" fill="white" stroke="black"/>
<path opacity="0.31" d="M494.773 691.858H499.818V696.894H494.773V691.858Z" fill="white" stroke="black"/>
<path opacity="0.15" d="M461.611 699.791H466.656V704.826H461.611V699.791Z" fill="white" stroke="black"/>
<path opacity="0.33" d="M469.901 699.791H474.947V704.826H469.901V699.791Z" fill="white" stroke="black"/>
<path opacity="0.46" d="M478.192 699.791H483.237V704.826H478.192V699.791Z" fill="white" stroke="black"/>
<path opacity="0.25" d="M486.482 699.791H491.528V704.826H486.482V699.791Z" fill="white" stroke="black"/>
<path opacity="0.43" d="M494.773 699.791H499.818V704.826H494.773V699.791Z" fill="white" stroke="black"/>
<path opacity="0.4" d="M461.611 707.723H466.656V712.759H461.611V707.723Z" fill="white" stroke="black"/>
<path opacity="0.39" d="M469.901 707.723H474.947V712.759H469.901V707.723Z" fill="white" stroke="black"/>
<path opacity="0.01" d="M478.192 707.723H483.237V712.759H478.192V707.723Z" fill="white" stroke="black"/>
<path opacity="0.12" d="M486.482 707.723H491.528V712.759H486.482V707.723Z" fill="white" stroke="black"/>
<path opacity="0.07" d="M494.773 707.723H499.818V712.759H494.773V707.723Z" fill="white" stroke="black"/>
<path opacity="0.07" d="M461.611 715.656H466.656V720.691H461.611V715.656Z" fill="white" stroke="black"/>
<path opacity="0.02" d="M469.901 715.656H474.947V720.691H469.901V715.656Z" fill="white" stroke="black"/>
<path opacity="0.12" d="M478.192 715.656H483.237V720.691H478.192V715.656Z" fill="white" stroke="black"/>
<path opacity="0.23" d="M486.482 715.656H491.528V720.691H486.482V715.656Z" fill="white" stroke="black"/>
<path opacity="0.26" d="M494.773 715.656H499.818V720.691H494.773V715.656Z" fill="white" stroke="black"/>
<path opacity="0.27" d="M461.611 723.588H466.656V728.624H461.611V723.588Z" fill="white" stroke="black"/>
<path opacity="0.38" d="M469.901 723.588H474.947V728.624H469.901V723.588Z" fill="white" stroke="black"/>
<path opacity="0.05" d="M478.192 723.588H483.237V728.624H478.192V723.588Z" fill="white" stroke="black"/>
<path opacity="0.45" d="M486.482 723.588H491.528V728.624H486.482V723.588Z" fill="white" stroke="black"/>
<path opacity="0.15" d="M494.773 723.588H499.818V728.624H494.773V723.588Z" fill="white" stroke="black"/>
<path opacity="0.06" d="M461.611 731.521H466.656V736.556H461.611V731.521Z" fill="white" stroke="black"/>
<path opacity="0.47" d="M469.901 731.521H474.947V736.556H469.901V731.521Z" fill="white" stroke="black"/>
<path opacity="0.15" d="M478.192 731.521H483.237V736.556H478.192V731.521Z" fill="white" stroke="black"/>
<path opacity="0.44" d="M486.482 731.521H491.528V736.556H486.482V731.521Z" fill="white" stroke="black"/>
<path opacity="0.14" d="M494.773 731.521H499.818V736.556H494.773V731.521Z" fill="white" stroke="black"/>
<path opacity="0.15" d="M461.611 739.453H466.656V744.489H461.611V739.453Z" fill="white" stroke="black"/>
<path opacity="0.43" d="M469.901 739.453H474.947V744.489H469.901V739.453Z" fill="white" stroke="black"/>
<path opacity="0.07" d="M478.192 739.453H483.237V744.489H478.192V739.453Z" fill="white" stroke="black"/>
<path opacity="0.47" d="M486.482 739.453H491.528V744.489H486.482V739.453Z" fill="white" stroke="black"/>
<path opacity="0.11" d="M494.773 739.453H499.818V744.489H494.773V739.453Z" fill="white" stroke="black"/>
<path opacity="0.07" d="M461.611 747.385H466.656V752.421H461.611V747.385Z" fill="white" stroke="black"/>
<path opacity="0.34" d="M469.901 747.385H474.947V752.421H469.901V747.385Z" fill="white" stroke="black"/>
<path opacity="0.5" d="M478.192 747.385H483.237V752.421H478.192V747.385Z" fill="white" stroke="black"/>
<path opacity="0.36" d="M486.482 747.385H491.528V752.421H486.482V747.385Z" fill="white" stroke="black"/>
<path opacity="0.34" d="M494.773 747.385H499.818V752.421H494.773V747.385Z" fill="white" stroke="black"/>
<path opacity="0.47" d="M461.611 755.318H466.656V760.354H461.611V755.318Z" fill="white" stroke="black"/>
<path opacity="0.41" d="M469.901 755.318H474.947V760.354H469.901V755.318Z" fill="white" stroke="black"/>
<path opacity="0.3" d="M478.192 755.318H483.237V760.354H478.192V755.318Z" fill="white" stroke="black"/>
<path opacity="0.33" d="M486.482 755.318H491.528V760.354H486.482V755.318Z" fill="white" stroke="black"/>
<path opacity="0.12" d="M494.773 755.318H499.818V760.354H494.773V755.318Z" fill="white" stroke="black"/>
<path opacity="0.24" d="M461.611 763.25H466.656V768.286H461.611V763.25Z" fill="white" stroke="black"/>
<path opacity="0.29" d="M469.901 763.25H474.947V768.286H469.901V763.25Z" fill="white" stroke="black"/>
<path opacity="0.27" d="M486.482 763.25H491.528V768.286H486.482V763.25Z" fill="white" stroke="black"/>
<path opacity="0.04" d="M494.773 763.25H499.818V768.286H494.773V763.25Z" fill="white" stroke="black"/>
<path opacity="0.11" d="M461.611 771.183H466.656V776.218H461.611V771.183Z" fill="white" stroke="black"/>
<path opacity="0.05" d="M469.901 771.183H474.947V776.218H469.901V771.183Z" fill="white" stroke="black"/>
<path opacity="0.04" d="M478.192 771.183H483.237V776.218H478.192V771.183Z" fill="white" stroke="black"/>
<path opacity="0.02" d="M486.482 771.183H491.528V776.218H486.482V771.183Z" fill="white" stroke="black"/>
<path opacity="0.3" d="M531.908 636.159H536.953V641.194H531.908V636.159Z" fill="white" stroke="black"/>
<path opacity="0.72" d="M539.853 636.159H544.898V641.194H539.853V636.159Z" fill="white" stroke="black"/>
<path opacity="0.7" d="M547.971 636.159H553.016V641.194H547.971V636.159Z" fill="white" stroke="black"/>
<path opacity="0.52" d="M556.089 636.159H561.134V641.194H556.089V636.159Z" fill="white" stroke="black"/>
<path opacity="0.2" d="M564.206 636.159H569.252V641.194H564.206V636.159Z" fill="white" stroke="black"/>
<path opacity="0.32" d="M572.152 636.159H577.197V641.194H572.152V636.159Z" fill="white" stroke="black"/>
<path opacity="0.13" d="M580.27 636.159H585.315V641.194H580.27V636.159Z" fill="white" stroke="black"/>
<path opacity="0.38" d="M588.387 636.159H593.433V641.194H588.387V636.159Z" fill="white" stroke="black"/>
<path opacity="0.61" d="M596.333 636.159H601.378V641.194H596.333V636.159Z" fill="white" stroke="black"/>
<path d="M604.45 636.159H609.496V641.194H604.45V636.159Z" fill="white" stroke="black"/>
<path opacity="0.91" d="M612.568 636.159H617.613V641.194H612.568V636.159Z" fill="white" stroke="black"/>
<path opacity="0.66" d="M531.908 644.091H536.953V649.127H531.908V644.091Z" fill="white" stroke="black"/>
<path opacity="0.31" d="M539.853 644.091H544.898V649.127H539.853V644.091Z" fill="white" stroke="black"/>
<path opacity="0.95" d="M547.971 644.091H553.016V649.127H547.971V644.091Z" fill="white" stroke="black"/>
<path opacity="0.7" d="M556.089 644.091H561.134V649.127H556.089V644.091Z" fill="white" stroke="black"/>
<path opacity="0.12" d="M564.206 644.091H569.252V649.127H564.206V644.091Z" fill="white" stroke="black"/>
<path opacity="0.24" d="M572.152 644.091H577.197V649.127H572.152V644.091Z" fill="white" stroke="black"/>
<path opacity="0.66" d="M580.27 644.091H585.315V649.127H580.27V644.091Z" fill="white" stroke="black"/>
<path opacity="0.71" d="M588.387 644.091H593.433V649.127H588.387V644.091Z" fill="white" stroke="black"/>
<path opacity="0.42" d="M596.333 644.091H601.378V649.127H596.333V644.091Z" fill="white" stroke="black"/>
<path opacity="0.09" d="M604.45 644.091H609.496V649.127H604.45V644.091Z" fill="white" stroke="black"/>
<path opacity="0.32" d="M612.568 644.091H617.613V649.127H612.568V644.091Z" fill="white" stroke="black"/>
<path opacity="0.65" d="M531.908 652.024H536.953V657.059H531.908V652.024Z" fill="white" stroke="black"/>
<path d="M539.853 652.024H544.898V657.059H539.853V652.024Z" fill="white" stroke="black"/>
<path d="M547.971 652.024H553.016V657.059H547.971V652.024Z" fill="white" stroke="black"/>
<path opacity="0.71" d="M556.089 652.024H561.134V657.059H556.089V652.024Z" fill="white" stroke="black"/>
<path opacity="0.2" d="M564.206 652.024H569.252V657.059H564.206V652.024Z" fill="white" stroke="black"/>
<path opacity="0.19" d="M572.152 652.024H577.197V657.059H572.152V652.024Z" fill="white" stroke="black"/>
<path opacity="0.62" d="M580.27 652.024H585.315V657.059H580.27V652.024Z" fill="white" stroke="black"/>
<path opacity="0.93" d="M588.387 652.024H593.433V657.059H588.387V652.024Z" fill="white" stroke="black"/>
<path opacity="0.56" d="M596.333 652.024H601.378V657.059H596.333V652.024Z" fill="white" stroke="black"/>
<path opacity="0.57" d="M604.45 652.024H609.496V657.059H604.45V652.024Z" fill="white" stroke="black"/>
<path opacity="0.52" d="M612.568 652.024H617.613V657.059H612.568V652.024Z" fill="white" stroke="black"/>
<path opacity="0.74" d="M531.908 659.956H536.953V664.992H531.908V659.956Z" fill="white" stroke="black"/>
<path opacity="0.56" d="M539.853 659.956H544.898V664.992H539.853V659.956Z" fill="white" stroke="black"/>
<path opacity="0.78" d="M547.971 659.956H553.016V664.992H547.971V659.956Z" fill="white" stroke="black"/>
<path opacity="0.41" d="M556.089 659.956H561.134V664.992H556.089V659.956Z" fill="white" stroke="black"/>
<path opacity="0.14" d="M564.206 659.956H569.252V664.992H564.206V659.956Z" fill="white" stroke="black"/>
<path opacity="0.28" d="M572.152 659.956H577.197V664.992H572.152V659.956Z" fill="white" stroke="black"/>
<path opacity="0.36" d="M580.27 659.956H585.315V664.992H580.27V659.956Z" fill="white" stroke="black"/>
<path opacity="0.14" d="M588.387 659.956H593.433V664.992H588.387V659.956Z" fill="white" stroke="black"/>
<path opacity="0.5" d="M596.333 659.956H601.378V664.992H596.333V659.956Z" fill="white" stroke="black"/>
<path opacity="0.98" d="M604.45 659.956H609.496V664.992H604.45V659.956Z" fill="white" stroke="black"/>
<path opacity="0.59" d="M612.568 659.956H617.613V664.992H612.568V659.956Z" fill="white" stroke="black"/>
<path opacity="0.07" d="M531.908 667.888H536.953V672.924H531.908V667.888Z" fill="white" stroke="black"/>
<path opacity="0.1" d="M539.853 667.888H544.898V672.924H539.853V667.888Z" fill="white" stroke="black"/>
<path opacity="0.88" d="M547.971 667.888H553.016V672.924H547.971V667.888Z" fill="white" stroke="black"/>
<path opacity="0.68" d="M556.089 667.888H561.134V672.924H556.089V667.888Z" fill="white" stroke="black"/>
<path opacity="0.81" d="M564.206 667.888H569.252V672.924H564.206V667.888Z" fill="white" stroke="black"/>
<path opacity="0.62" d="M572.152 667.888H577.197V672.924H572.152V667.888Z" fill="white" stroke="black"/>
<path opacity="0.97" d="M580.27 667.888H585.315V672.924H580.27V667.888Z" fill="white" stroke="black"/>
<path opacity="0.81" d="M588.387 667.888H593.433V672.924H588.387V667.888Z" fill="white" stroke="black"/>
<path opacity="0.79" d="M596.333 667.888H601.378V672.924H596.333V667.888Z" fill="white" stroke="black"/>
<path opacity="0.03" d="M604.45 667.888H609.496V672.924H604.45V667.888Z" fill="white" stroke="black"/>
<path opacity="0.95" d="M612.568 667.888H617.613V672.924H612.568V667.888Z" fill="white" stroke="black"/>
<path opacity="0.62" d="M531.908 675.821H536.953V680.856H531.908V675.821Z" fill="white" stroke="black"/>
<path opacity="0.22" d="M539.853 675.821H544.898V680.856H539.853V675.821Z" fill="white" stroke="black"/>
<path opacity="0.42" d="M547.971 675.821H553.016V680.856H547.971V675.821Z" fill="white" stroke="black"/>
<path opacity="0.56" d="M556.089 675.821H561.134V680.856H556.089V675.821Z" fill="white" stroke="black"/>
<path opacity="0.03" d="M564.206 675.821H569.252V680.856H564.206V675.821Z" fill="white" stroke="black"/>
<path opacity="0.64" d="M572.152 675.821H577.197V680.856H572.152V675.821Z" fill="white" stroke="black"/>
<path opacity="0.82" d="M580.27 675.821H585.315V680.856H580.27V675.821Z" fill="white" stroke="black"/>
<path opacity="0.52" d="M588.387 675.821H593.433V680.856H588.387V675.821Z" fill="white" stroke="black"/>
<path opacity="0.46" d="M596.333 675.821H601.378V680.856H596.333V675.821Z" fill="white" stroke="black"/>
<path opacity="0.27" d="M604.45 675.821H609.496V680.856H604.45V675.821Z" fill="white" stroke="black"/>
<path opacity="0.46" d="M612.568 675.821H617.613V680.856H612.568V675.821Z" fill="white" stroke="black"/>
<path opacity="0.66" d="M531.908 683.926H536.953V688.961H531.908V683.926Z" fill="white" stroke="black"/>
<path opacity="0.7" d="M539.853 683.926H544.898V688.961H539.853V683.926Z" fill="white" stroke="black"/>
<path opacity="0.94" d="M547.971 683.926H553.016V688.961H547.971V683.926Z" fill="white" stroke="black"/>
<path opacity="0.5" d="M556.089 683.926H561.134V688.961H556.089V683.926Z" fill="white" stroke="black"/>
<path opacity="0.12" d="M564.206 683.926H569.252V688.961H564.206V683.926Z" fill="white" stroke="black"/>
<path opacity="0.36" d="M572.152 683.926H577.197V688.961H572.152V683.926Z" fill="white" stroke="black"/>
<path opacity="0.51" d="M580.27 683.926H585.315V688.961H580.27V683.926Z" fill="white" stroke="black"/>
<path opacity="0.37" d="M588.387 683.926H593.433V688.961H588.387V683.926Z" fill="white" stroke="black"/>
<path opacity="0.66" d="M596.333 683.926H601.378V688.961H596.333V683.926Z" fill="white" stroke="black"/>
<path opacity="0.42" d="M604.45 683.926H609.496V688.961H604.45V683.926Z" fill="white" stroke="black"/>
<path opacity="0.5" d="M612.568 683.926H617.613V688.961H612.568V683.926Z" fill="white" stroke="black"/>
<path opacity="0.52" d="M531.908 691.858H536.953V696.894H531.908V691.858Z" fill="white" stroke="black"/>
<path opacity="0.61" d="M539.853 691.858H544.898V696.894H539.853V691.858Z" fill="white" stroke="black"/>
<path opacity="0.84" d="M547.971 691.858H553.016V696.894H547.971V691.858Z" fill="white" stroke="black"/>
<path opacity="0.89" d="M556.089 691.858H561.134V696.894H556.089V691.858Z" fill="white" stroke="black"/>
<path opacity="0.33" d="M564.206 691.858H569.252V696.894H564.206V691.858Z" fill="white" stroke="black"/>
<path opacity="0.25" d="M572.152 691.858H577.197V696.894H572.152V691.858Z" fill="white" stroke="black"/>
<path opacity="0.95" d="M580.27 691.858H585.315V696.894H580.27V691.858Z" fill="white" stroke="black"/>
<path opacity="0.09" d="M588.387 691.858H593.433V696.894H588.387V691.858Z" fill="white" stroke="black"/>
<path opacity="0.44" d="M596.333 691.858H601.378V696.894H596.333V691.858Z" fill="white" stroke="black"/>
<path opacity="0.51" d="M604.45 691.858H609.496V696.894H604.45V691.858Z" fill="white" stroke="black"/>
<path opacity="0.97" d="M612.568 691.858H617.613V696.894H612.568V691.858Z" fill="white" stroke="black"/>
<path opacity="0.26" d="M531.908 699.791H536.953V704.826H531.908V699.791Z" fill="white" stroke="black"/>
<path opacity="0.92" d="M539.853 699.791H544.898V704.826H539.853V699.791Z" fill="white" stroke="black"/>
<path opacity="0.33" d="M547.971 699.791H553.016V704.826H547.971V699.791Z" fill="white" stroke="black"/>
<path opacity="0.23" d="M556.089 699.791H561.134V704.826H556.089V699.791Z" fill="white" stroke="black"/>
<path opacity="0.42" d="M564.206 699.791H569.252V704.826H564.206V699.791Z" fill="white" stroke="black"/>
<path opacity="0.57" d="M572.152 699.791H577.197V704.826H572.152V699.791Z" fill="white" stroke="black"/>
<path opacity="0.73" d="M580.27 699.791H585.315V704.826H580.27V699.791Z" fill="white" stroke="black"/>
<path opacity="0.87" d="M588.387 699.791H593.433V704.826H588.387V699.791Z" fill="white" stroke="black"/>
<path opacity="0.22" d="M596.333 699.791H601.378V704.826H596.333V699.791Z" fill="white" stroke="black"/>
<path opacity="0.89" d="M604.45 699.791H609.496V704.826H604.45V699.791Z" fill="white" stroke="black"/>
<path opacity="0.73" d="M612.568 699.791H617.613V704.826H612.568V699.791Z" fill="white" stroke="black"/>
<path opacity="0.35" d="M531.908 707.723H536.953V712.759H531.908V707.723Z" fill="white" stroke="black"/>
<path opacity="0.81" d="M539.853 707.723H544.898V712.759H539.853V707.723Z" fill="white" stroke="black"/>
<path opacity="0.56" d="M547.971 707.723H553.016V712.759H547.971V707.723Z" fill="white" stroke="black"/>
<path opacity="0.81" d="M556.089 707.723H561.134V712.759H556.089V707.723Z" fill="white" stroke="black"/>
<path opacity="0.87" d="M564.206 707.723H569.252V712.759H564.206V707.723Z" fill="white" stroke="black"/>
<path opacity="0.39" d="M572.152 707.723H577.197V712.759H572.152V707.723Z" fill="white" stroke="black"/>
<path opacity="0.31" d="M580.27 707.723H585.315V712.759H580.27V707.723Z" fill="white" stroke="black"/>
<path opacity="0.98" d="M588.387 707.723H593.433V712.759H588.387V707.723Z" fill="white" stroke="black"/>
<path opacity="0.17" d="M596.333 707.723H601.378V712.759H596.333V707.723Z" fill="white" stroke="black"/>
<path opacity="0.06" d="M604.45 707.723H609.496V712.759H604.45V707.723Z" fill="white" stroke="black"/>
<path opacity="0.57" d="M612.568 707.723H617.613V712.759H612.568V707.723Z" fill="white" stroke="black"/>
<path opacity="0.67" d="M531.908 715.656H536.953V720.691H531.908V715.656Z" fill="white" stroke="black"/>
<path opacity="0.83" d="M539.853 715.656H544.898V720.691H539.853V715.656Z" fill="white" stroke="black"/>
<path opacity="0.99" d="M547.971 715.656H553.016V720.691H547.971V715.656Z" fill="white" stroke="black"/>
<path opacity="0.62" d="M556.089 715.656H561.134V720.691H556.089V715.656Z" fill="white" stroke="black"/>
<path opacity="0.87" d="M564.206 715.656H569.252V720.691H564.206V715.656Z" fill="white" stroke="black"/>
<path opacity="0.14" d="M572.152 715.656H577.197V720.691H572.152V715.656Z" fill="white" stroke="black"/>
<path opacity="0.12" d="M580.27 715.656H585.315V720.691H580.27V715.656Z" fill="white" stroke="black"/>
<path opacity="0.11" d="M588.387 715.656H593.433V720.691H588.387V715.656Z" fill="white" stroke="black"/>
<path opacity="0.39" d="M596.333 715.656H601.378V720.691H596.333V715.656Z" fill="white" stroke="black"/>
<path opacity="0.58" d="M604.45 715.656H609.496V720.691H604.45V715.656Z" fill="white" stroke="black"/>
<path opacity="0.54" d="M612.568 715.656H617.613V720.691H612.568V715.656Z" fill="white" stroke="black"/>
<path opacity="0.99" d="M531.908 723.588H536.953V728.624H531.908V723.588Z" fill="white" stroke="black"/>
<path opacity="0.28" d="M539.853 723.588H544.898V728.624H539.853V723.588Z" fill="white" stroke="black"/>
<path opacity="0.78" d="M547.971 723.588H553.016V728.624H547.971V723.588Z" fill="white" stroke="black"/>
<path opacity="0.65" d="M556.089 723.588H561.134V728.624H556.089V723.588Z" fill="white" stroke="black"/>
<path opacity="0.32" d="M564.206 723.588H569.252V728.624H564.206V723.588Z" fill="white" stroke="black"/>
<path opacity="0.55" d="M572.152 723.588H577.197V728.624H572.152V723.588Z" fill="white" stroke="black"/>
<path opacity="0.4" d="M580.27 723.588H585.315V728.624H580.27V723.588Z" fill="white" stroke="black"/>
<path opacity="0.22" d="M588.387 723.588H593.433V728.624H588.387V723.588Z" fill="white" stroke="black"/>
<path opacity="0.87" d="M596.333 723.588H601.378V728.624H596.333V723.588Z" fill="white" stroke="black"/>
<path opacity="0.02" d="M604.45 723.588H609.496V728.624H604.45V723.588Z" fill="white" stroke="black"/>
<path opacity="0.39" d="M612.568 723.588H617.613V728.624H612.568V723.588Z" fill="white" stroke="black"/>
<path opacity="0.89" d="M531.908 731.521H536.953V736.556H531.908V731.521Z" fill="white" stroke="black"/>
<path opacity="0.97" d="M539.853 731.521H544.898V736.556H539.853V731.521Z" fill="white" stroke="black"/>
<path opacity="0.79" d="M547.971 731.521H553.016V736.556H547.971V731.521Z" fill="white" stroke="black"/>
<path opacity="0.41" d="M556.089 731.521H561.134V736.556H556.089V731.521Z" fill="white" stroke="black"/>
<path opacity="0.13" d="M564.206 731.521H569.252V736.556H564.206V731.521Z" fill="white" stroke="black"/>
<path opacity="0.9" d="M572.152 731.521H577.197V736.556H572.152V731.521Z" fill="white" stroke="black"/>
<path opacity="0.98" d="M580.27 731.521H585.315V736.556H580.27V731.521Z" fill="white" stroke="black"/>
<path opacity="0.67" d="M588.387 731.521H593.433V736.556H588.387V731.521Z" fill="white" stroke="black"/>
<path opacity="0.65" d="M596.333 731.521H601.378V736.556H596.333V731.521Z" fill="white" stroke="black"/>
<path opacity="0.89" d="M604.45 731.521H609.496V736.556H604.45V731.521Z" fill="white" stroke="black"/>
<path opacity="0.98" d="M612.568 731.521H617.613V736.556H612.568V731.521Z" fill="white" stroke="black"/>
<path opacity="0.29" d="M531.908 739.453H536.953V744.489H531.908V739.453Z" fill="white" stroke="black"/>
<path opacity="0.74" d="M539.853 739.453H544.898V744.489H539.853V739.453Z" fill="white" stroke="black"/>
<path opacity="0.64" d="M547.971 739.453H553.016V744.489H547.971V739.453Z" fill="white" stroke="black"/>
<path opacity="0.65" d="M556.089 739.453H561.134V744.489H556.089V739.453Z" fill="white" stroke="black"/>
<path opacity="0.07" d="M564.206 739.453H569.252V744.489H564.206V739.453Z" fill="white" stroke="black"/>
<path opacity="0.16" d="M572.152 739.453H577.197V744.489H572.152V739.453Z" fill="white" stroke="black"/>
<path opacity="0.84" d="M580.27 739.453H585.315V744.489H580.27V739.453Z" fill="white" stroke="black"/>
<path opacity="0.88" d="M588.387 739.453H593.433V744.489H588.387V739.453Z" fill="white" stroke="black"/>
<path opacity="0.57" d="M596.333 739.453H601.378V744.489H596.333V739.453Z" fill="white" stroke="black"/>
<path opacity="0.31" d="M604.45 739.453H609.496V744.489H604.45V739.453Z" fill="white" stroke="black"/>
<path opacity="0.03" d="M612.568 739.453H617.613V744.489H612.568V739.453Z" fill="white" stroke="black"/>
<path opacity="0.3" d="M531.908 747.385H536.953V752.421H531.908V747.385Z" fill="white" stroke="black"/>
<path opacity="0.59" d="M539.853 747.385H544.898V752.421H539.853V747.385Z" fill="white" stroke="black"/>
<path opacity="0.93" d="M547.971 747.385H553.016V752.421H547.971V747.385Z" fill="white" stroke="black"/>
<path opacity="0.06" d="M556.089 747.385H561.134V752.421H556.089V747.385Z" fill="white" stroke="black"/>
<path opacity="0.74" d="M564.206 747.385H569.252V752.421H564.206V747.385Z" fill="white" stroke="black"/>
<path opacity="0.22" d="M572.152 747.385H577.197V752.421H572.152V747.385Z" fill="white" stroke="black"/>
<path opacity="0.51" d="M580.27 747.385H585.315V752.421H580.27V747.385Z" fill="white" stroke="black"/>
<path opacity="0.7" d="M588.387 747.385H593.433V752.421H588.387V747.385Z" fill="white" stroke="black"/>
<path opacity="0.47" d="M596.333 747.385H601.378V752.421H596.333V747.385Z" fill="white" stroke="black"/>
<path opacity="0.08" d="M604.45 747.385H609.496V752.421H604.45V747.385Z" fill="white" stroke="black"/>
<path opacity="0.93" d="M612.568 747.385H617.613V752.421H612.568V747.385Z" fill="white" stroke="black"/>
<path opacity="0.81" d="M531.908 755.318H536.953V760.354H531.908V755.318Z" fill="white" stroke="black"/>
<path opacity="0.9" d="M539.853 755.318H544.898V760.354H539.853V755.318Z" fill="white" stroke="black"/>
<path opacity="0.55" d="M547.971 755.318H553.016V760.354H547.971V755.318Z" fill="white" stroke="black"/>
<path opacity="0.14" d="M556.089 755.318H561.134V760.354H556.089V755.318Z" fill="white" stroke="black"/>
<path opacity="0.66" d="M564.206 755.318H569.252V760.354H564.206V755.318Z" fill="white" stroke="black"/>
<path opacity="0.92" d="M572.152 755.318H577.197V760.354H572.152V755.318Z" fill="white" stroke="black"/>
<path opacity="0.4" d="M580.27 755.318H585.315V760.354H580.27V755.318Z" fill="white" stroke="black"/>
<path opacity="0.6" d="M588.387 755.318H593.433V760.354H588.387V755.318Z" fill="white" stroke="black"/>
<path opacity="0.99" d="M596.333 755.318H601.378V760.354H596.333V755.318Z" fill="white" stroke="black"/>
<path opacity="0.68" d="M604.45 755.318H609.496V760.354H604.45V755.318Z" fill="white" stroke="black"/>
<path opacity="0.01" d="M612.568 755.318H617.613V760.354H612.568V755.318Z" fill="white" stroke="black"/>
<path opacity="0.82" d="M531.908 763.25H536.953V768.286H531.908V763.25Z" fill="white" stroke="black"/>
<path opacity="0.92" d="M539.853 763.25H544.898V768.286H539.853V763.25Z" fill="white" stroke="black"/>
<path opacity="0.29" d="M547.971 763.25H553.016V768.286H547.971V763.25Z" fill="white" stroke="black"/>
<path opacity="0.73" d="M556.089 763.25H561.134V768.286H556.089V763.25Z" fill="white" stroke="black"/>
<path opacity="0.42" d="M564.206 763.25H569.252V768.286H564.206V763.25Z" fill="white" stroke="black"/>
<path opacity="0.06" d="M572.152 763.25H577.197V768.286H572.152V763.25Z" fill="white" stroke="black"/>
<path opacity="0.7" d="M580.27 763.25H585.315V768.286H580.27V763.25Z" fill="white" stroke="black"/>
<path opacity="0.97" d="M588.387 763.25H593.433V768.286H588.387V763.25Z" fill="white" stroke="black"/>
<path opacity="0.51" d="M596.333 763.25H601.378V768.286H596.333V763.25Z" fill="white" stroke="black"/>
<path opacity="0.69" d="M604.45 763.25H609.496V768.286H604.45V763.25Z" fill="white" stroke="black"/>
<path opacity="0.49" d="M612.568 763.25H617.613V768.286H612.568V763.25Z" fill="white" stroke="black"/>
<path opacity="0.45" d="M531.908 771.183H536.953V776.218H531.908V771.183Z" fill="white" stroke="black"/>
<path opacity="0.46" d="M539.853 771.183H544.898V776.218H539.853V771.183Z" fill="white" stroke="black"/>
<path opacity="0.04" d="M547.971 771.183H553.016V776.218H547.971V771.183Z" fill="white" stroke="black"/>
<path opacity="0.56" d="M556.089 771.183H561.134V776.218H556.089V771.183Z" fill="white" stroke="black"/>
<path opacity="0.4" d="M564.206 771.183H569.252V776.218H564.206V771.183Z" fill="white" stroke="black"/>
<path opacity="0.59" d="M572.152 771.183H577.197V776.218H572.152V771.183Z" fill="white" stroke="black"/>
<path opacity="0.82" d="M580.27 771.183H585.315V776.218H580.27V771.183Z" fill="white" stroke="black"/>
<path opacity="0.99" d="M588.387 771.183H593.433V776.218H588.387V771.183Z" fill="white" stroke="black"/>
<path opacity="0.1" d="M596.333 771.183H601.378V776.218H596.333V771.183Z" fill="white" stroke="black"/>
<path opacity="0.87" d="M604.45 771.183H609.496V776.218H604.45V771.183Z" fill="white" stroke="black"/>
<path d="M612.568 771.183H617.613V776.218H612.568V771.183Z" fill="white" stroke="black"/>
<path d="M378.878 597.359H434.875V774.667H378.878V597.359Z" fill="#333333" stroke="black"/>
<path d="M378.878 588.392H403.786V597.394H378.878V588.392Z" fill="#333333" stroke="black"/>
<path d="M378.878 582.529H392.904V587.392H378.878V582.529Z" fill="#333333" stroke="black"/>
<path opacity="0.25" d="M402.54 609.948H410.867V618.26H402.54V609.948Z" fill="white" stroke="black"/>
<path opacity="0.15" d="M402.54 632.883H410.867V641.195H402.54V632.883Z" fill="white" stroke="black"/>
<path opacity="0.19" d="M402.54 678.58H410.867V686.892H402.54V678.58Z" fill="white" stroke="black"/>
<path opacity="0.17" d="M402.54 701.343H410.867V709.655H402.54V701.343Z" fill="white" stroke="black"/>
<path opacity="0.22" d="M402.54 724.106H410.867V732.418H402.54V724.106Z" fill="white" stroke="black"/>
<path d="M402.54 747.041H410.867V755.353H402.54V747.041Z" fill="white" stroke="black"/>
<path d="M340.188 696.687H392.559V711.379H340.188V696.687Z" fill="#333333" stroke="black"/>
<path d="M393.559 696.687H419.158V711.379H393.559V696.687Z" fill="#4D4D4D" stroke="black"/>
<path d="M356.331 688.779L388.368 695.687H341.892L356.331 688.779Z" fill="#333333" stroke="black"/>
<path d="M411.636 695.687H393.112L367.492 690.163L411.636 695.687Z" fill="#4D4D4D" stroke="black"/>
<path d="M327.925 707.723H404.995V778.115H327.925V707.723Z" fill="#333333" stroke="black"/>
<path d="M405.995 707.723H430.903V778.115H405.995V707.723Z" fill="#4D4D4D" stroke="black"/>
<path opacity="0.81" d="M411.867 712.724H424.858V716.898H411.867V712.724Z" fill="white" stroke="black"/>
<path opacity="0.76" d="M411.867 722.209H424.858V726.382H411.867V722.209Z" fill="white" stroke="black"/>
<path opacity="0.32" d="M411.867 731.693H424.858V735.867H411.867V731.693Z" fill="white" stroke="black"/>
<path opacity="0.49" d="M411.867 741.35H424.858V745.523H411.867V741.35Z" fill="white" stroke="black"/>
<path opacity="0.99" d="M411.867 760.319H424.858V764.492H411.867V760.319Z" fill="white" stroke="black"/>
<path opacity="0.1" d="M340.361 712.724H353.352V716.898H340.361V712.724Z" fill="white" stroke="black"/>
<path opacity="0.04" d="M359.878 712.724H372.869V716.898H359.878V712.724Z" fill="white" stroke="black"/>
<path opacity="0.07" d="M379.569 712.724H392.559V716.898H379.569V712.724Z" fill="white" stroke="black"/>
<path opacity="0.06" d="M340.361 722.209H353.352V726.382H340.361V722.209Z" fill="white" stroke="black"/>
<path opacity="0.44" d="M359.878 722.209H372.869V726.382H359.878V722.209Z" fill="white" stroke="black"/>
<path opacity="0.24" d="M379.569 722.209H392.559V726.382H379.569V722.209Z" fill="white" stroke="black"/>
<path opacity="0.55" d="M340.361 731.693H353.352V735.867H340.361V731.693Z" fill="white" stroke="black"/>
<path opacity="0.02" d="M359.878 731.693H372.869V735.867H359.878V731.693Z" fill="white" stroke="black"/>
<path opacity="0.14" d="M379.569 731.693H392.559V735.867H379.569V731.693Z" fill="white" stroke="black"/>
<path opacity="0.43" d="M340.361 741.35H353.352V745.523H340.361V741.35Z" fill="white" stroke="black"/>
<path opacity="0.41" d="M359.878 741.35H372.869V745.523H359.878V741.35Z" fill="white" stroke="black"/>
<path opacity="0.46" d="M379.569 741.35H392.559V745.523H379.569V741.35Z" fill="white" stroke="black"/>
<path opacity="0.45" d="M340.361 750.834H353.352V755.008H340.361V750.834Z" fill="white" stroke="black"/>
<path opacity="0.33" d="M359.878 750.834H372.869V755.008H359.878V750.834Z" fill="white" stroke="black"/>
<path opacity="0.05" d="M379.569 750.834H392.559V755.008H379.569V750.834Z" fill="white" stroke="black"/>
<path opacity="0.27" d="M340.361 760.319H353.352V764.493H340.361V760.319Z" fill="white" stroke="black"/>
<path opacity="0.15" d="M359.878 760.319H372.869V764.493H359.878V760.319Z" fill="white" stroke="black"/>
<path opacity="0.7" d="M379.569 760.319H392.559V764.493H379.569V760.319Z" fill="white" stroke="black"/>
<path d="M-22.1788 636.332H25.1829V784.151H-22.1788V636.332Z" fill="#333333" stroke="black"/>
<path d="M26.3556 636.332H80.2806V784.151H26.3556V636.332Z" fill="#4D4D4D" stroke="black"/>
<path d="M-22.1788 648.92H25.1829V650.507H-22.1788V648.92Z" fill="#4D4D4D" stroke="black"/>
<path d="M26.3556 648.92H80.2806V650.507H26.3556V648.92Z" fill="#333333" stroke="black"/>
<path opacity="0.32" d="M-4.04321 654.438H0.138458V658.612H-4.04321V654.438Z" fill="white" stroke="black"/>
<path opacity="0.25" d="M3.03833 654.438H7.21997V658.612H3.03833V654.438Z" fill="white" stroke="black"/>
<path opacity="0.12" d="M17.2014 654.438H21.3831V658.612H17.2014V654.438Z" fill="white" stroke="black"/>
<path opacity="0.22" d="M-4.04321 661.509H0.138458V665.682H-4.04321V661.509Z" fill="white" stroke="black"/>
<path opacity="0.47" d="M3.03833 661.509H7.21997V665.682H3.03833V661.509Z" fill="white" stroke="black"/>
<path opacity="0.22" d="M10.1199 661.509H14.3015V665.682H10.1199V661.509Z" fill="white" stroke="black"/>
<path opacity="0.32" d="M17.2014 661.509H21.3831V665.682H17.2014V661.509Z" fill="white" stroke="black"/>
<path opacity="0.18" d="M-4.04321 668.579H0.138458V672.752H-4.04321V668.579Z" fill="white" stroke="black"/>
<path opacity="0.28" d="M3.03833 668.579H7.21997V672.752H3.03833V668.579Z" fill="white" stroke="black"/>
<path opacity="0.2" d="M17.2014 668.579H21.3831V672.752H17.2014V668.579Z" fill="white" stroke="black"/>
<path opacity="0.33" d="M-4.04321 675.649H0.138458V679.822H-4.04321V675.649Z" fill="white" stroke="black"/>
<path opacity="0.05" d="M3.03833 675.649H7.21997V679.822H3.03833V675.649Z" fill="white" stroke="black"/>
<path opacity="0.08" d="M10.1199 675.649H14.3015V679.822H10.1199V675.649Z" fill="white" stroke="black"/>
<path opacity="0.08" d="M3.03833 682.719H7.21997V686.893H3.03833V682.719Z" fill="white" stroke="black"/>
<path opacity="0.02" d="M10.1199 682.719H14.3015V686.893H10.1199V682.719Z" fill="white" stroke="black"/>
<path opacity="0.05" d="M-4.04321 689.79H0.138458V693.963H-4.04321V689.79Z" fill="white" stroke="black"/>
<path opacity="0.2" d="M3.03833 689.79H7.21997V693.963H3.03833V689.79Z" fill="white" stroke="black"/>
<path opacity="0.23" d="M10.1199 689.79H14.3015V693.963H10.1199V689.79Z" fill="white" stroke="black"/>
<path opacity="0.14" d="M-4.04321 696.86H0.138458V701.033H-4.04321V696.86Z" fill="white" stroke="black"/>
<path opacity="0.24" d="M10.1199 696.86H14.3015V701.033H10.1199V696.86Z" fill="white" stroke="black"/>
<path opacity="0.23" d="M-4.04321 703.93H0.138458V708.103H-4.04321V703.93Z" fill="white" stroke="black"/>
<path opacity="0.02" d="M3.03833 703.93H7.21997V708.103H3.03833V703.93Z" fill="white" stroke="black"/>
<path opacity="0.04" d="M10.1199 703.93H14.3015V708.103H10.1199V703.93Z" fill="white" stroke="black"/>
<path opacity="0.3" d="M17.2014 703.93H21.3831V708.103H17.2014V703.93Z" fill="white" stroke="black"/>
<path opacity="0.4" d="M17.2014 710.828H21.3831V715.001H17.2014V710.828Z" fill="white" stroke="black"/>
<path opacity="0.12" d="M-4.04321 717.898H0.138458V722.072H-4.04321V717.898Z" fill="white" stroke="black"/>
<path opacity="0.19" d="M10.1199 717.898H14.3015V722.072H10.1199V717.898Z" fill="white" stroke="black"/>
<path opacity="0.43" d="M17.2014 717.898H21.3831V722.072H17.2014V717.898Z" fill="white" stroke="black"/>
<path opacity="0.42" d="M3.03833 724.968H7.21997V729.142H3.03833V724.968Z" fill="white" stroke="black"/>
<path opacity="0.31" d="M17.2014 724.968H21.3831V729.142H17.2014V724.968Z" fill="white" stroke="black"/>
<path opacity="0.31" d="M3.03833 732.039H7.21997V736.212H3.03833V732.039Z" fill="white" stroke="black"/>
<path opacity="0.33" d="M17.2014 732.039H21.3831V736.212H17.2014V732.039Z" fill="white" stroke="black"/>
<path opacity="0.17" d="M3.03833 739.109H7.21997V743.282H3.03833V739.109Z" fill="white" stroke="black"/>
<path opacity="0.01" d="M10.1199 739.109H14.3015V743.282H10.1199V739.109Z" fill="white" stroke="black"/>
<path opacity="0.48" d="M17.2014 739.109H21.3831V743.282H17.2014V739.109Z" fill="white" stroke="black"/>
<path opacity="0.28" d="M-4.04321 746.179H0.138458V750.352H-4.04321V746.179Z" fill="white" stroke="black"/>
<path opacity="0.02" d="M3.03833 746.179H7.21997V750.352H3.03833V746.179Z" fill="white" stroke="black"/>
<path opacity="0.17" d="M10.1199 746.179H14.3015V750.352H10.1199V746.179Z" fill="white" stroke="black"/>
<path opacity="0.42" d="M17.2014 746.179H21.3831V750.352H17.2014V746.179Z" fill="white" stroke="black"/>
<path opacity="0.11" d="M-4.04321 753.249H0.138458V757.422H-4.04321V753.249Z" fill="white" stroke="black"/>
<path opacity="0.02" d="M3.03833 753.249H7.21997V757.422H3.03833V753.249Z" fill="white" stroke="black"/>
<path opacity="0.3" d="M17.2014 753.249H21.3831V757.422H17.2014V753.249Z" fill="white" stroke="black"/>
<path opacity="0.19" d="M-4.04321 760.319H0.138458V764.493H-4.04321V760.319Z" fill="white" stroke="black"/>
<path opacity="0.05" d="M3.03833 760.319H7.21997V764.493H3.03833V760.319Z" fill="white" stroke="black"/>
<path opacity="0.2" d="M17.2014 760.319H21.3831V764.493H17.2014V760.319Z" fill="white" stroke="black"/>
<path opacity="0.27" d="M3.03833 767.39H7.21997V771.563H3.03833V767.39Z" fill="white" stroke="black"/>
<path opacity="0.13" d="M10.1199 767.39H14.3015V771.563H10.1199V767.39Z" fill="white" stroke="black"/>
<path opacity="0.46" d="M-4.04321 774.46H0.138458V778.633H-4.04321V774.46Z" fill="white" stroke="black"/>
<path opacity="0.12" d="M3.03833 774.46H7.21997V778.633H3.03833V774.46Z" fill="white" stroke="black"/>
<path opacity="0.04" d="M10.1199 774.46H14.3015V778.633H10.1199V774.46Z" fill="white" stroke="black"/>
<path opacity="0.3" d="M17.2014 774.46H21.3831V778.633H17.2014V774.46Z" fill="white" stroke="black"/>
<path opacity="0.08" d="M10.1199 654.438H14.3015V658.612H10.1199V654.438Z" fill="white" stroke="black"/>
<path opacity="0.08" d="M10.1199 668.579H14.3015V672.752H10.1199V668.579Z" fill="white" stroke="black"/>
<path opacity="0.01" d="M17.2014 675.649H21.3831V679.822H17.2014V675.649Z" fill="white" stroke="black"/>
<path opacity="0.15" d="M-4.04321 682.719H0.138458V686.893H-4.04321V682.719Z" fill="white" stroke="black"/>
<path opacity="0.12" d="M17.2014 682.719H21.3831V686.893H17.2014V682.719Z" fill="white" stroke="black"/>
<path opacity="0.13" d="M3.03833 696.86H7.21997V701.033H3.03833V696.86Z" fill="white" stroke="black"/>
<path opacity="0.07" d="M17.2014 696.86H21.3831V701.033H17.2014V696.86Z" fill="white" stroke="black"/>
<path opacity="0.02" d="M-4.04321 710.828H0.138458V715.001H-4.04321V710.828Z" fill="white" stroke="black"/>
<path opacity="0.02" d="M3.03833 710.828H7.21997V715.001H3.03833V710.828Z" fill="white" stroke="black"/>
<path opacity="0.14" d="M10.1199 710.828H14.3015V715.001H10.1199V710.828Z" fill="white" stroke="black"/>
<path opacity="0.09" d="M-4.04321 724.968H0.138458V729.142H-4.04321V724.968Z" fill="white" stroke="black"/>
<path opacity="0.02" d="M10.1199 724.968H14.3015V729.142H10.1199V724.968Z" fill="white" stroke="black"/>
<path opacity="0.19" d="M-4.04321 732.039H0.138458V736.212H-4.04321V732.039Z" fill="white" stroke="black"/>
<path opacity="0.06" d="M10.1199 732.039H14.3015V736.212H10.1199V732.039Z" fill="white" stroke="black"/>
<path opacity="0.16" d="M-4.04321 739.109H0.138458V743.282H-4.04321V739.109Z" fill="white" stroke="black"/>
<path opacity="0.04" d="M10.1199 753.249H14.3015V757.422H10.1199V753.249Z" fill="white" stroke="black"/>
<path opacity="0.04" d="M10.1199 760.319H14.3015V764.493H10.1199V760.319Z" fill="white" stroke="black"/>
<path opacity="0.18" d="M17.2014 767.39H21.3831V771.563H17.2014V767.39Z" fill="white" stroke="black"/>
<g opacity="0.7">
<path opacity="0.7" d="M31.3645 651.507H35.7188V777.598H31.3645V651.507Z" fill="#E6E6E6" stroke="black"/>
<path opacity="0.7" d="M40.5187 651.507H44.873V777.598H40.5187V651.507Z" fill="#E6E6E6" stroke="black"/>
<path opacity="0.7" d="M49.8456 651.507H54.1999V777.598H49.8456V651.507Z" fill="#E6E6E6" stroke="black"/>
<path opacity="0.7" d="M59.1725 651.507H63.5268V777.598H59.1725V651.507Z" fill="#E6E6E6" stroke="black"/>
<path opacity="0.7" d="M68.4994 651.507H72.8537V777.598H68.4994V651.507Z" fill="#E6E6E6" stroke="black"/>
</g>
<path d="M107.916 777.599H2.32038L107.916 685.731V777.599Z" fill="#333333" stroke="black"/>
<path d="M62.7997 762.044H98.7618V781.737H62.7997V762.044Z" fill="#4D4D4D" stroke="black"/>
<path d="M65.5632 757.216H95.9983V765.873H65.5632V757.216Z" fill="#4D4D4D" stroke="black"/>
<path d="M84.1244 746.007L91.9892 759.147H69.3995L77.2643 746.007H84.1244Z" fill="#4D4D4D" stroke="black"/>
<path d="M72.6448 766.183H88.9168V777.771H72.6448V766.183Z" fill="white" stroke="black"/>
<path d="M70.572 771.184H90.9893V772.77H70.572V771.184Z" fill="#4D4D4D" stroke="black"/>
<path d="M240.701 820.537L240.701 820.537C227.499 821.044 216.164 810.735 215.657 797.565C215.149 784.384 225.304 773.069 238.666 772.563L238.666 772.563C251.861 772.056 263.031 782.359 263.71 795.538C264.216 808.718 254.062 820.031 240.701 820.537Z" fill="#333333" stroke="black"/>
<path d="M259.565 788.812C259.898 796.294 254.069 802.615 246.57 802.948C239.075 803.281 232.744 797.46 232.411 789.975C232.078 782.493 237.906 776.172 245.405 775.839C252.901 775.506 259.232 781.327 259.565 788.812Z" fill="#4D4D4D" stroke="black"/>
<path d="M17.0651 770.166C17.0651 773.166 14.5261 775.702 11.5198 775.702C8.51353 775.702 5.97461 773.166 5.97461 770.166C5.97461 767.167 8.51353 764.631 11.5198 764.631C14.5355 764.631 17.0651 767.003 17.0651 770.166Z" fill="#333333" stroke="black"/>
<path d="M19.1377 776.202C19.1377 780.408 15.7352 783.807 11.5198 783.807C7.30451 783.807 3.90198 780.408 3.90198 776.202C3.90198 771.995 7.30451 768.597 11.5198 768.597C15.7352 768.597 19.1377 771.995 19.1377 776.202Z" fill="#333333" stroke="black"/>
<path d="M14.9924 764.993C14.9924 766.986 13.4625 768.632 11.5199 768.632C9.57723 768.632 8.0473 766.986 8.0473 764.993C8.0473 763 9.57723 761.354 11.5199 761.354C13.4625 761.354 14.9924 763 14.9924 764.993Z" fill="#333333" stroke="black"/>
<path d="M16.2014 770.166C16.2014 771.786 14.8716 773.115 13.2471 773.115C11.6225 773.115 10.2927 771.786 10.2927 770.166C10.2927 768.546 11.6225 767.217 13.2471 767.217C14.8716 767.217 16.2014 768.546 16.2014 770.166Z" fill="#4D4D4D" stroke="black"/>
<path d="M12.3835 763.423H12.4145L12.4454 763.42C13.4692 763.292 14.4742 764.195 14.4742 765.51C14.4742 766.613 13.4898 767.597 12.3835 767.597C11.2771 767.597 10.2927 766.613 10.2927 765.51C10.2927 764.407 11.2771 763.423 12.3835 763.423Z" fill="#4D4D4D" stroke="black"/>
<path d="M132.27 782.754C132.27 786.789 128.867 790.187 124.824 790.187C120.782 790.187 117.379 786.789 117.379 782.754C117.379 778.713 120.616 775.322 124.824 775.322C128.867 775.322 132.27 778.72 132.27 782.754Z" fill="#333333" stroke="black"/>
<path d="M129.506 776.029C129.506 778.706 127.464 780.875 124.824 780.875C122.185 780.875 120.143 778.706 120.143 776.029C120.143 773.353 122.185 771.183 124.824 771.183C127.302 771.183 129.506 773.364 129.506 776.029Z" fill="#333333" stroke="black"/>
<path d="M128.815 776.546C128.815 778.166 127.485 779.495 125.861 779.495C124.236 779.495 122.906 778.166 122.906 776.546C122.906 774.926 124.236 773.597 125.861 773.597C127.485 773.597 128.815 774.926 128.815 776.546Z" fill="#4D4D4D" stroke="black"/>
<path d="M105.705 801.399L105.704 801.399C97.691 800.565 92.0157 793.399 92.8502 785.567L92.8503 785.566C93.6848 777.567 100.862 771.899 108.709 772.733C116.558 773.566 122.398 780.568 121.564 788.566C120.729 796.564 113.552 802.232 105.705 801.399Z" fill="#333333" stroke="black"/>
<path d="M117.763 775.293C117.27 780.545 112.67 784.472 107.427 783.982C102.364 783.492 98.5748 778.75 99.0687 773.49C99.5619 768.237 104.162 764.31 109.406 764.801C114.634 765.29 118.258 770.025 117.763 775.293Z" fill="#333333" stroke="black"/>
<path d="M116.382 776.324L116.382 776.327C116.063 779.669 113.03 782.058 109.847 781.74L109.845 781.74C106.496 781.421 104.105 778.392 104.423 775.217L104.423 775.215C104.742 771.873 107.775 769.484 110.957 769.802L110.96 769.802C114.308 770.12 116.7 773.149 116.382 776.324Z" fill="#4D4D4D" stroke="black"/>
<path d="M199.803 781.375C199.803 788.686 193.983 794.498 186.658 794.498C179.334 794.498 173.513 788.686 173.513 781.375C173.513 774.064 179.334 768.252 186.658 768.252C193.814 768.252 199.803 774.068 199.803 781.375Z" fill="#333333" stroke="black"/>
<path d="M194.967 769.649C194.967 774.564 191.201 778.461 186.486 778.461C181.77 778.461 178.004 774.564 178.004 769.649C178.004 764.737 181.766 760.841 186.477 760.837C191.211 761.004 194.967 764.919 194.967 769.649Z" fill="#333333" stroke="black"/>
<path d="M197.731 781.375C197.731 785.416 194.494 788.807 190.285 788.807C186.236 788.807 182.84 785.575 182.84 781.375C182.84 777.337 186.072 773.948 190.275 773.943C194.347 774.11 197.731 777.361 197.731 781.375Z" fill="#4D4D4D" stroke="black"/>
<path d="M188.213 765.493H188.225L188.238 765.492C191.383 765.335 193.758 767.842 193.758 770.856C193.758 773.865 191.382 776.391 188.213 776.391C185.197 776.391 182.668 774.018 182.668 770.856C182.668 767.866 185.024 765.493 188.213 765.493Z" fill="#4D4D4D" stroke="black"/>
<path d="M169.577 792.756C169.577 802.136 161.857 809.845 152.46 809.845C143.063 809.845 135.342 802.136 135.342 792.756C135.342 783.376 143.063 775.667 152.46 775.667C161.86 775.667 169.577 783.207 169.577 792.756Z" fill="#333333" stroke="black"/>
<path d="M163.532 777.581C163.532 783.871 158.561 788.98 152.46 788.98C146.359 788.98 141.387 783.871 141.387 777.581C141.387 771.291 146.359 766.182 152.46 766.182C158.561 766.182 163.532 771.291 163.532 777.581Z" fill="#333333" stroke="black"/>
<path d="M161.977 779.133C161.977 783.153 158.762 786.221 154.705 786.221C150.655 786.221 147.432 782.988 147.432 779.133C147.432 775.099 150.662 771.873 154.705 771.873C158.748 771.873 161.977 775.099 161.977 779.133Z" fill="#4D4D4D" stroke="black"/>
<path d="M212.239 779.65C212.239 781.459 210.893 782.772 209.285 782.772C207.676 782.772 206.33 781.459 206.33 779.65C206.33 777.842 207.676 776.529 209.285 776.529C210.893 776.529 212.239 777.842 212.239 779.65Z" fill="#333333" stroke="black"/>
<path d="M286.509 775.34C286.509 781.788 281.379 786.911 274.918 786.911C268.458 786.911 263.328 781.788 263.328 775.34C263.328 768.891 268.458 763.769 274.918 763.769C281.379 763.769 286.509 768.891 286.509 775.34Z" fill="#333333" stroke="black"/>
<path d="M290.654 787.411C290.654 796.101 283.624 803.121 274.918 803.121C266.212 803.121 259.183 796.101 259.183 787.411C259.183 778.721 266.212 771.701 274.918 771.701C283.624 771.701 290.654 778.721 290.654 787.411Z" fill="#333333" stroke="black"/>
<path d="M282.364 764.993C282.364 769.22 278.941 772.77 274.918 772.77C270.89 772.77 267.473 769.386 267.473 764.993C267.473 760.765 270.896 757.216 274.918 757.216C278.941 757.216 282.364 760.765 282.364 764.993Z" fill="#333333" stroke="black"/>
<path d="M284.609 775.34C284.609 778.857 281.725 781.738 278.2 781.738C274.676 781.738 271.791 778.857 271.791 775.34C271.791 771.823 274.676 768.942 278.2 768.942C281.725 768.942 284.609 771.823 284.609 775.34Z" fill="#4D4D4D" stroke="black"/>
<path d="M281.327 766.028C281.327 768.682 279.134 770.873 276.473 770.873C273.812 770.873 271.619 768.682 271.619 766.028C271.619 763.373 273.812 761.182 276.473 761.182C279.134 761.182 281.327 763.373 281.327 766.028Z" fill="#4D4D4D" stroke="black"/>
<path d="M331.589 790.515C331.589 799.205 324.559 806.224 315.853 806.224C307.147 806.224 300.117 799.205 300.117 790.515C300.117 781.826 307.144 774.808 315.848 774.805C324.565 774.975 331.589 782.004 331.589 790.515Z" fill="#333333" stroke="black"/>
<path d="M325.889 776.719C325.889 782.499 321.257 787.256 315.853 787.256C310.266 787.256 305.644 782.661 305.644 776.719C305.644 770.955 310.261 766.355 315.853 766.355C321.434 766.355 325.889 770.945 325.889 776.719Z" fill="#333333" stroke="black"/>
<path d="M324.507 778.099C324.507 781.788 321.623 784.669 317.926 784.669C314.229 784.669 311.344 781.788 311.344 778.099C311.344 774.41 314.229 771.529 317.926 771.529C321.623 771.529 324.507 774.41 324.507 778.099Z" fill="#4D4D4D" stroke="black"/>
<path d="M595.851 797.068C595.851 811.621 584.158 823.297 569.579 823.297C555.001 823.297 543.307 811.621 543.307 797.068C543.307 782.514 555.001 770.839 569.579 770.839C584.156 770.839 595.851 782.685 595.851 797.068Z" fill="#333333" stroke="black"/>
<path d="M591.878 789.653C591.878 797.826 585.194 804.5 577.006 804.5C568.818 804.5 562.134 797.826 562.134 789.653C562.134 781.48 568.818 774.805 577.006 774.805C585.194 774.805 591.878 781.48 591.878 789.653Z" fill="#4D4D4D" stroke="black"/>
<path d="M630.222 785.514C630.222 797.653 620.256 807.604 608.096 807.604C595.935 807.604 585.969 797.653 585.969 785.514C585.969 773.375 595.935 763.424 608.096 763.424C620.429 763.424 630.222 773.202 630.222 785.514Z" fill="#333333" stroke="black"/>
<path d="M626.768 779.133C626.768 786.095 621.124 791.567 614.314 791.567C607.339 791.567 601.86 785.931 601.86 779.133C601.86 772.34 607.508 766.7 614.314 766.7C621.12 766.7 626.768 772.34 626.768 779.133Z" fill="#4D4D4D" stroke="black"/>
<path d="M572.534 789.135C572.534 801.274 562.568 811.225 550.407 811.225C538.247 811.225 528.281 801.274 528.281 789.135C528.281 776.996 538.247 767.045 550.407 767.045C562.74 767.045 572.534 776.823 572.534 789.135Z" fill="#333333" stroke="black"/>
<path d="M569.079 782.755C569.079 789.716 563.436 795.188 556.625 795.188C549.819 795.188 544.171 789.548 544.171 782.755C544.171 775.793 549.815 770.321 556.625 770.321C563.436 770.321 569.079 775.793 569.079 782.755Z" fill="#4D4D4D" stroke="black"/>
<path d="M502.755 794.309C502.755 806.448 492.789 816.399 480.628 816.399C468.468 816.399 458.502 806.448 458.502 794.309C458.502 782.17 468.468 772.219 480.628 772.219C492.959 772.219 502.755 782.167 502.755 794.309Z" fill="#333333" stroke="black"/>
<path d="M499.3 787.928C499.3 794.89 493.657 800.362 486.846 800.362C479.872 800.362 474.392 794.726 474.392 787.928C474.392 780.967 480.036 775.495 486.846 775.495C493.652 775.495 499.3 781.135 499.3 787.928Z" fill="#4D4D4D" stroke="black"/>
<path d="M475.465 790.515C475.465 802.654 465.499 812.605 453.338 812.605C441.178 812.605 431.212 802.654 431.212 790.515C431.212 778.376 441.178 768.425 453.338 768.425C465.501 768.425 475.465 778.206 475.465 790.515Z" fill="#333333" stroke="black"/>
<path d="M472.01 784.134C472.01 791.096 466.367 796.568 459.556 796.568C452.582 796.568 447.102 790.932 447.102 784.134C447.102 777.173 452.746 771.701 459.556 771.701C466.367 771.701 472.01 777.173 472.01 784.134Z" fill="#4D4D4D" stroke="black"/>
<path d="M493.082 786.893C493.082 793.854 487.439 799.326 480.628 799.326C473.654 799.326 468.174 793.691 468.174 786.893C468.174 779.932 473.818 774.46 480.628 774.46C487.603 774.46 493.082 780.095 493.082 786.893Z" fill="#4D4D4D" stroke="black"/>
<path d="M396.532 787.928C396.532 795.759 390.189 802.258 382.178 802.258C374.331 802.258 367.824 795.924 367.824 787.928C367.824 780.098 374.164 773.6 382.173 773.597C390.199 773.767 396.532 780.107 396.532 787.928Z" fill="#333333" stroke="black"/>
<path d="M394.286 783.789C394.286 788.168 390.711 791.739 386.323 791.739C381.935 791.739 378.36 788.168 378.36 783.789C378.36 779.41 381.935 775.839 386.323 775.839C390.711 775.839 394.286 779.41 394.286 783.789Z" fill="#4D4D4D" stroke="black"/>
<path d="M-3.50683 764.286V764.286L-3.49404 764.285C2.9496 764.12 8.42905 769.573 8.42905 776.202C8.42905 782.823 3.12659 788.118 -3.50683 788.118C-10.1403 788.118 -15.4427 782.823 -15.4427 776.202C-15.4427 769.581 -10.1403 764.286 -3.50683 764.286Z" fill="#333333" stroke="black"/>
<path d="M12.5743 788.618C12.5743 797.653 5.37197 804.845 -3.67952 804.845C-12.731 804.845 -19.9333 797.653 -19.9333 788.618C-19.9333 779.583 -12.731 772.391 -3.67952 772.391C5.37197 772.391 12.5743 779.583 12.5743 788.618Z" fill="#333333" stroke="black"/>
<path d="M4.11105 765.51C4.11105 769.903 0.695154 773.46 -3.67952 773.46C-7.88819 773.46 -11.4701 769.896 -11.4701 765.51C-11.4701 761.117 -8.05419 757.56 -3.67952 757.56C0.695154 757.56 4.11105 761.117 4.11105 765.51Z" fill="#333333" stroke="black"/>
<path d="M6.52902 776.201C6.52902 779.891 3.47195 782.944 -0.225235 782.944C-3.92242 782.944 -6.97949 779.891 -6.97949 776.201C-6.97949 772.512 -3.92242 769.459 -0.225235 769.459C3.47195 769.459 6.52902 772.512 6.52902 776.201Z" fill="#4D4D4D" stroke="black"/>
<path d="M3.07465 766.545C3.07465 769.21 0.871073 771.563 -1.95242 771.563C-4.62349 771.563 -6.97949 769.362 -6.97949 766.545C-6.97949 763.88 -4.77592 761.527 -1.95242 761.527C0.718642 761.527 3.07465 763.728 3.07465 766.545Z" fill="#4D4D4D" stroke="black"/>
<path d="M67.3267 781.031C67.3267 786.272 63.0606 790.532 57.8089 790.532C52.5572 790.532 48.2911 786.272 48.2911 781.031C48.2911 775.789 52.5572 771.529 57.8089 771.529C63.0606 771.529 67.3267 775.789 67.3267 781.031Z" fill="#333333" stroke="black"/>
<path d="M63.8723 772.408C63.8723 775.95 61.1359 778.806 57.8089 778.806C54.4818 778.806 51.7455 775.95 51.7455 772.408C51.7455 768.87 54.4753 766.017 57.797 766.011C61.1582 766.176 63.8723 768.892 63.8723 772.408Z" fill="#333333" stroke="black"/>
<path d="M60.3997 775.84H60.4128L60.4259 775.839C63.407 775.682 65.7722 778.026 65.7722 781.03C65.7722 784.03 63.406 786.393 60.3997 786.393C57.3934 786.393 55.0272 784.03 55.0272 781.03C55.0272 778.213 57.3836 775.84 60.3997 775.84Z" fill="#4D4D4D" stroke="black"/>
<path d="M59.1907 769.459H59.2085L59.2263 769.458C61.3087 769.31 63.0087 771.098 63.0087 773.27C63.0087 775.408 61.3334 777.081 59.1907 777.081C57.048 777.081 55.3727 775.408 55.3727 773.27C55.3727 771.133 57.048 769.459 59.1907 769.459Z" fill="#4D4D4D" stroke="black"/>
</g>
<defs>
<clipPath id="clip0_1_12798">
<rect width="1127" height="776" fill="white" transform="translate(-398 0.321777)"/>
</clipPath>
</defs>
</svg>
